<mxfile host="app.diagrams.net" modified="2023-07-13T08:27:30.388Z" agent="Mozilla/5.0 (Macintosh; Intel Mac OS X 10_15_7) AppleWebKit/537.36 (KHTML, like Gecko) Chrome/114.0.0.0 Safari/537.36" etag="AyzHEIud5KNh9dExWzS-" version="21.6.2" type="github">
  <diagram name="Page-1" id="52a04d89-c75d-2922-d76d-85b35f80e030">
    <mxGraphModel dx="2018" dy="1131" grid="1" gridSize="10" guides="1" tooltips="1" connect="1" arrows="1" fold="1" page="1" pageScale="1" pageWidth="1100" pageHeight="850" background="none" math="0" shadow="0">
      <root>
        <mxCell id="0" />
        <mxCell id="1" parent="0" />
        <mxCell id="gH7rjEzT-3DNNFHSMBgZ-24" value="" style="edgeStyle=orthogonalEdgeStyle;rounded=0;orthogonalLoop=1;jettySize=auto;html=1;" edge="1" parent="1" source="17472293e6e8944d-30" target="gH7rjEzT-3DNNFHSMBgZ-23">
          <mxGeometry relative="1" as="geometry" />
        </mxCell>
        <mxCell id="17472293e6e8944d-30" value="브라우저 진입" style="whiteSpace=wrap;html=1;rounded=0;shadow=0;comic=0;labelBackgroundColor=none;strokeWidth=1;fontFamily=Verdana;fontSize=12;align=center;" parent="1" vertex="1">
          <mxGeometry x="380" y="54" width="120" height="50" as="geometry" />
        </mxCell>
        <mxCell id="degMfgPpI1O1PvxIHG5i-1" value="앱 유도 팝업" style="swimlane;html=1;fontStyle=0;childLayout=stackLayout;horizontal=1;startSize=26;fillColor=#e0e0e0;horizontalStack=0;resizeParent=1;resizeLast=0;collapsible=1;marginBottom=0;swimlaneFillColor=#ffffff;align=center;rounded=1;shadow=0;comic=0;labelBackgroundColor=none;strokeWidth=1;fontFamily=Verdana;fontSize=12" parent="1" vertex="1">
          <mxGeometry x="1020" y="119" width="87" height="52" as="geometry" />
        </mxCell>
        <mxCell id="degMfgPpI1O1PvxIHG5i-2" value="apps/*" style="text;html=1;strokeColor=none;fillColor=none;spacingLeft=4;spacingRight=4;whiteSpace=wrap;overflow=hidden;rotatable=0;points=[[0,0.5],[1,0.5]];portConstraint=eastwest;align=center;" parent="degMfgPpI1O1PvxIHG5i-1" vertex="1">
          <mxGeometry y="26" width="87" height="26" as="geometry" />
        </mxCell>
        <mxCell id="degMfgPpI1O1PvxIHG5i-5" value="hooks" style="swimlane;html=1;fontStyle=0;childLayout=stackLayout;horizontal=1;startSize=26;fillColor=#e0e0e0;horizontalStack=0;resizeParent=1;resizeLast=0;collapsible=1;marginBottom=0;swimlaneFillColor=#ffffff;align=center;rounded=1;shadow=0;comic=0;labelBackgroundColor=none;strokeWidth=1;fontFamily=Verdana;fontSize=12" parent="1" vertex="1">
          <mxGeometry x="1150" y="119" width="140" height="55" as="geometry" />
        </mxCell>
        <mxCell id="degMfgPpI1O1PvxIHG5i-6" value="useMwebToAppDialog" style="text;html=1;strokeColor=none;fillColor=none;spacingLeft=4;spacingRight=4;whiteSpace=wrap;overflow=hidden;rotatable=0;points=[[0,0.5],[1,0.5]];portConstraint=eastwest;align=center;" parent="degMfgPpI1O1PvxIHG5i-5" vertex="1">
          <mxGeometry y="26" width="140" height="24" as="geometry" />
        </mxCell>
        <mxCell id="degMfgPpI1O1PvxIHG5i-10" value="utils/log" style="swimlane;html=1;fontStyle=0;childLayout=stackLayout;horizontal=1;startSize=26;fillColor=#e0e0e0;horizontalStack=0;resizeParent=1;resizeLast=0;collapsible=1;marginBottom=0;swimlaneFillColor=#ffffff;align=center;rounded=1;shadow=0;comic=0;labelBackgroundColor=none;strokeWidth=1;fontFamily=Verdana;fontSize=12" parent="1" vertex="1">
          <mxGeometry x="1326" y="120" width="206" height="52" as="geometry" />
        </mxCell>
        <mxCell id="degMfgPpI1O1PvxIHG5i-11" value="branch" style="text;html=1;strokeColor=none;fillColor=none;spacingLeft=4;spacingRight=4;whiteSpace=wrap;overflow=hidden;rotatable=0;points=[[0,0.5],[1,0.5]];portConstraint=eastwest;align=center;" parent="degMfgPpI1O1PvxIHG5i-10" vertex="1">
          <mxGeometry y="26" width="206" height="26" as="geometry" />
        </mxCell>
        <mxCell id="degMfgPpI1O1PvxIHG5i-13" value="" style="edgeStyle=orthogonalEdgeStyle;rounded=0;orthogonalLoop=1;jettySize=auto;html=1;entryX=1;entryY=0.5;entryDx=0;entryDy=0;" parent="1" edge="1" target="degMfgPpI1O1PvxIHG5i-5">
          <mxGeometry relative="1" as="geometry">
            <mxPoint x="1326" y="147" as="sourcePoint" />
            <mxPoint x="1300" y="143" as="targetPoint" />
          </mxGeometry>
        </mxCell>
        <mxCell id="degMfgPpI1O1PvxIHG5i-20" value="" style="edgeStyle=orthogonalEdgeStyle;rounded=0;orthogonalLoop=1;jettySize=auto;html=1;entryX=1;entryY=0.5;entryDx=0;entryDy=0;exitX=0.003;exitY=0;exitDx=0;exitDy=0;exitPerimeter=0;" parent="1" source="degMfgPpI1O1PvxIHG5i-6" target="degMfgPpI1O1PvxIHG5i-1" edge="1">
          <mxGeometry relative="1" as="geometry">
            <mxPoint x="1247" y="195" as="sourcePoint" />
            <mxPoint x="798.96" y="277.20000000000005" as="targetPoint" />
            <Array as="points">
              <mxPoint x="1150" y="146" />
              <mxPoint x="1150" y="145" />
            </Array>
          </mxGeometry>
        </mxCell>
        <mxCell id="gH7rjEzT-3DNNFHSMBgZ-7" value="Quick Link" style="swimlane;html=1;fontStyle=0;childLayout=stackLayout;horizontal=1;startSize=26;fillColor=#e0e0e0;horizontalStack=0;resizeParent=1;resizeLast=0;collapsible=1;marginBottom=0;swimlaneFillColor=#ffffff;align=center;rounded=1;shadow=0;comic=0;labelBackgroundColor=none;strokeWidth=1;fontFamily=Verdana;fontSize=12" vertex="1" parent="1">
          <mxGeometry x="60" y="55" width="140" height="52" as="geometry" />
        </mxCell>
        <mxCell id="gH7rjEzT-3DNNFHSMBgZ-8" value="Branch Dashboard" style="text;html=1;strokeColor=none;fillColor=none;spacingLeft=4;spacingRight=4;whiteSpace=wrap;overflow=hidden;rotatable=0;points=[[0,0.5],[1,0.5]];portConstraint=eastwest;align=center;" vertex="1" parent="gH7rjEzT-3DNNFHSMBgZ-7">
          <mxGeometry y="26" width="140" height="26" as="geometry" />
        </mxCell>
        <mxCell id="gH7rjEzT-3DNNFHSMBgZ-11" value="WebToApp Link" style="swimlane;html=1;fontStyle=0;childLayout=stackLayout;horizontal=1;startSize=26;fillColor=#e0e0e0;horizontalStack=0;resizeParent=1;resizeLast=0;collapsible=1;marginBottom=0;swimlaneFillColor=#ffffff;align=center;rounded=1;shadow=0;comic=0;labelBackgroundColor=none;strokeWidth=1;fontFamily=Verdana;fontSize=12" vertex="1" parent="1">
          <mxGeometry x="1020" y="52" width="510" height="52" as="geometry" />
        </mxCell>
        <mxCell id="gH7rjEzT-3DNNFHSMBgZ-12" value="fe-mobile" style="text;html=1;strokeColor=none;fillColor=none;spacingLeft=4;spacingRight=4;whiteSpace=wrap;overflow=hidden;rotatable=0;points=[[0,0.5],[1,0.5]];portConstraint=eastwest;align=center;" vertex="1" parent="gH7rjEzT-3DNNFHSMBgZ-11">
          <mxGeometry y="26" width="510" height="26" as="geometry" />
        </mxCell>
        <mxCell id="gH7rjEzT-3DNNFHSMBgZ-13" value="" style="edgeStyle=orthogonalEdgeStyle;rounded=0;orthogonalLoop=1;jettySize=auto;html=1;exitX=1.006;exitY=0.438;exitDx=0;exitDy=0;exitPerimeter=0;entryX=0;entryY=0.5;entryDx=0;entryDy=0;" edge="1" parent="1" source="gH7rjEzT-3DNNFHSMBgZ-16" target="17472293e6e8944d-30">
          <mxGeometry relative="1" as="geometry">
            <mxPoint x="410" y="89" as="sourcePoint" />
            <mxPoint x="280" y="80" as="targetPoint" />
          </mxGeometry>
        </mxCell>
        <mxCell id="gH7rjEzT-3DNNFHSMBgZ-16" value="https://prizm.app.link/YDk3XUvqWAb" style="shape=document;whiteSpace=wrap;html=1;boundedLbl=1;fillColor=#008a00;fontColor=#ffffff;strokeColor=#005700;" vertex="1" parent="1">
          <mxGeometry x="20" y="210" width="250" height="80" as="geometry" />
        </mxCell>
        <mxCell id="gH7rjEzT-3DNNFHSMBgZ-17" value="" style="edgeStyle=orthogonalEdgeStyle;rounded=0;orthogonalLoop=1;jettySize=auto;html=1;entryX=0.398;entryY=-0.012;entryDx=0;entryDy=0;entryPerimeter=0;" edge="1" parent="1">
          <mxGeometry relative="1" as="geometry">
            <mxPoint x="127" y="110" as="sourcePoint" />
            <mxPoint x="126.5" y="209.03999999999996" as="targetPoint" />
            <Array as="points">
              <mxPoint x="127" y="111" />
              <mxPoint x="127" y="159" />
            </Array>
          </mxGeometry>
        </mxCell>
        <mxCell id="gH7rjEzT-3DNNFHSMBgZ-21" value="" style="edgeStyle=orthogonalEdgeStyle;rounded=0;orthogonalLoop=1;jettySize=auto;html=1;" edge="1" parent="1" source="gH7rjEzT-3DNNFHSMBgZ-18" target="gH7rjEzT-3DNNFHSMBgZ-20">
          <mxGeometry relative="1" as="geometry" />
        </mxCell>
        <mxCell id="gH7rjEzT-3DNNFHSMBgZ-18" value="Init Branch" style="swimlane;html=1;fontStyle=0;childLayout=stackLayout;horizontal=1;startSize=26;fillColor=#e0e0e0;horizontalStack=0;resizeParent=1;resizeLast=0;collapsible=1;marginBottom=0;swimlaneFillColor=#ffffff;align=center;rounded=1;shadow=0;comic=0;labelBackgroundColor=none;strokeWidth=1;fontFamily=Verdana;fontSize=12" vertex="1" parent="1">
          <mxGeometry x="830" y="52" width="140" height="52" as="geometry" />
        </mxCell>
        <mxCell id="gH7rjEzT-3DNNFHSMBgZ-19" value="fe-mobile" style="text;html=1;strokeColor=none;fillColor=none;spacingLeft=4;spacingRight=4;whiteSpace=wrap;overflow=hidden;rotatable=0;points=[[0,0.5],[1,0.5]];portConstraint=eastwest;align=center;" vertex="1" parent="gH7rjEzT-3DNNFHSMBgZ-18">
          <mxGeometry y="26" width="140" height="26" as="geometry" />
        </mxCell>
        <mxCell id="gH7rjEzT-3DNNFHSMBgZ-31" value="" style="edgeStyle=orthogonalEdgeStyle;rounded=0;orthogonalLoop=1;jettySize=auto;html=1;" edge="1" parent="1" source="gH7rjEzT-3DNNFHSMBgZ-20" target="gH7rjEzT-3DNNFHSMBgZ-30">
          <mxGeometry relative="1" as="geometry" />
        </mxCell>
        <mxCell id="gH7rjEzT-3DNNFHSMBgZ-20" value="Branch SDK(Auto)&lt;br&gt;API : Link Parser" style="shape=document;whiteSpace=wrap;html=1;boundedLbl=1;fontFamily=Verdana;fillColor=#d80073;fontStyle=0;startSize=26;swimlaneFillColor=#ffffff;rounded=1;shadow=0;comic=0;labelBackgroundColor=none;strokeWidth=1;fontColor=#ffffff;strokeColor=#A50040;" vertex="1" parent="1">
          <mxGeometry x="840" y="173" width="120" height="80" as="geometry" />
        </mxCell>
        <mxCell id="gH7rjEzT-3DNNFHSMBgZ-22" value="모바일웹 진입" style="whiteSpace=wrap;html=1;rounded=0;shadow=0;comic=0;labelBackgroundColor=none;strokeWidth=1;fontFamily=Verdana;fontSize=12;align=center;" vertex="1" parent="1">
          <mxGeometry x="560" y="54" width="120" height="50" as="geometry" />
        </mxCell>
        <mxCell id="gH7rjEzT-3DNNFHSMBgZ-23" value="https://mweb.prizm.co.kr/showroom/kapka?_branch_match_id=1207950813861404249&amp;amp;utm_source=k-ch&amp;amp;utm_campaign=k-ch&amp;amp;utm_medium=k-ch&amp;amp;_branch_referrer=H4sIAAAAAAAAA8soKSkottLXLyjKrMrVSywo0MvJzMvWj3TJNo4ILSsMd0wCAKloLLwiAAAA" style="shape=document;whiteSpace=wrap;html=1;boundedLbl=1;fontFamily=Verdana;rounded=0;shadow=0;comic=0;labelBackgroundColor=none;strokeWidth=1;" vertex="1" parent="1">
          <mxGeometry x="100" y="385" width="680" height="80" as="geometry" />
        </mxCell>
        <mxCell id="gH7rjEzT-3DNNFHSMBgZ-26" value="URL 자동변환" style="whiteSpace=wrap;html=1;rounded=0;shadow=0;comic=0;labelBackgroundColor=none;strokeWidth=1;fontFamily=Verdana;fontSize=12;align=center;strokeColor=none;" vertex="1" parent="1">
          <mxGeometry x="380" y="280" width="120" height="30" as="geometry" />
        </mxCell>
        <mxCell id="gH7rjEzT-3DNNFHSMBgZ-27" value="" style="edgeStyle=orthogonalEdgeStyle;rounded=0;orthogonalLoop=1;jettySize=auto;html=1;exitX=0.765;exitY=0;exitDx=0;exitDy=0;exitPerimeter=0;entryX=0.5;entryY=1;entryDx=0;entryDy=0;" edge="1" parent="1" source="gH7rjEzT-3DNNFHSMBgZ-23" target="gH7rjEzT-3DNNFHSMBgZ-22">
          <mxGeometry relative="1" as="geometry">
            <mxPoint x="450" y="114" as="sourcePoint" />
            <mxPoint x="450" y="395" as="targetPoint" />
          </mxGeometry>
        </mxCell>
        <mxCell id="gH7rjEzT-3DNNFHSMBgZ-29" value="" style="endArrow=classic;html=1;rounded=0;exitX=1;exitY=0.5;exitDx=0;exitDy=0;entryX=0;entryY=0.077;entryDx=0;entryDy=0;entryPerimeter=0;" edge="1" parent="1" source="gH7rjEzT-3DNNFHSMBgZ-22" target="gH7rjEzT-3DNNFHSMBgZ-19">
          <mxGeometry width="50" height="50" relative="1" as="geometry">
            <mxPoint x="650" y="620" as="sourcePoint" />
            <mxPoint x="700" y="570" as="targetPoint" />
          </mxGeometry>
        </mxCell>
        <mxCell id="gH7rjEzT-3DNNFHSMBgZ-30" value="Branch SDK(Auto)&lt;br&gt;Storage Save" style="shape=document;whiteSpace=wrap;html=1;boundedLbl=1;fontFamily=Verdana;fillColor=#d80073;fontStyle=0;startSize=26;swimlaneFillColor=#ffffff;rounded=1;shadow=0;comic=0;labelBackgroundColor=none;strokeWidth=1;fontColor=#ffffff;strokeColor=#A50040;" vertex="1" parent="1">
          <mxGeometry x="840" y="310" width="120" height="80" as="geometry" />
        </mxCell>
        <mxCell id="gH7rjEzT-3DNNFHSMBgZ-32" value="SDK 내 data 메서드로&lt;br&gt;접근가능" style="whiteSpace=wrap;html=1;rounded=0;shadow=0;comic=0;labelBackgroundColor=none;strokeWidth=1;fontFamily=Verdana;fontSize=12;align=center;" vertex="1" parent="1">
          <mxGeometry x="910" y="360" width="140" height="50" as="geometry" />
        </mxCell>
        <mxCell id="gH7rjEzT-3DNNFHSMBgZ-33" value="" style="endArrow=classic;html=1;rounded=0;exitX=0.991;exitY=0.054;exitDx=0;exitDy=0;entryX=-0.002;entryY=0.085;entryDx=0;entryDy=0;entryPerimeter=0;exitPerimeter=0;" edge="1" parent="1" source="gH7rjEzT-3DNNFHSMBgZ-19" target="gH7rjEzT-3DNNFHSMBgZ-12">
          <mxGeometry width="50" height="50" relative="1" as="geometry">
            <mxPoint x="690" y="89" as="sourcePoint" />
            <mxPoint x="840" y="90" as="targetPoint" />
          </mxGeometry>
        </mxCell>
        <mxCell id="gH7rjEzT-3DNNFHSMBgZ-34" value="" style="endArrow=classic;html=1;rounded=0;exitX=0.503;exitY=1.008;exitDx=0;exitDy=0;entryX=1;entryY=0.25;entryDx=0;entryDy=0;exitPerimeter=0;" edge="1" parent="1" source="degMfgPpI1O1PvxIHG5i-11" target="gH7rjEzT-3DNNFHSMBgZ-32">
          <mxGeometry width="50" height="50" relative="1" as="geometry">
            <mxPoint x="1382" y="390" as="sourcePoint" />
            <mxPoint x="1532" y="391" as="targetPoint" />
            <Array as="points">
              <mxPoint x="1430" y="370" />
            </Array>
          </mxGeometry>
        </mxCell>
        <mxCell id="gH7rjEzT-3DNNFHSMBgZ-35" value="" style="endArrow=classic;html=1;rounded=0;exitX=1.031;exitY=0.644;exitDx=0;exitDy=0;exitPerimeter=0;" edge="1" parent="1" source="gH7rjEzT-3DNNFHSMBgZ-32">
          <mxGeometry width="50" height="50" relative="1" as="geometry">
            <mxPoint x="1465" y="450" as="sourcePoint" />
            <mxPoint x="1430" y="440" as="targetPoint" />
            <Array as="points">
              <mxPoint x="1430" y="392" />
            </Array>
          </mxGeometry>
        </mxCell>
        <mxCell id="gH7rjEzT-3DNNFHSMBgZ-37" value="https://prizm.app.link/PqDfLX8v7Ab" style="shape=document;whiteSpace=wrap;html=1;boundedLbl=1;fillColor=#008a00;fontColor=#ffffff;strokeColor=#005700;" vertex="1" parent="1">
          <mxGeometry x="1310" y="440" width="250" height="80" as="geometry" />
        </mxCell>
        <mxCell id="gH7rjEzT-3DNNFHSMBgZ-38" value="Generate Link" style="whiteSpace=wrap;html=1;rounded=0;shadow=0;comic=0;labelBackgroundColor=none;strokeWidth=1;fontFamily=Verdana;fontSize=12;align=center;strokeColor=none;" vertex="1" parent="1">
          <mxGeometry x="1369" y="270" width="120" height="30" as="geometry" />
        </mxCell>
      </root>
    </mxGraphModel>
  </diagram>
</mxfile>
